<svg id="visual" viewBox="0 0 900 600" width="900" height="600" xmlns="http://www.w3.org/2000/svg" xmlns:xlink="http://www.w3.org/1999/xlink" version="1.1"><path d="M0 85L82 43L164 37L245 37L327 97L409 97L491 49L573 61L655 97L736 73L818 37L900 91L900 0L818 0L736 0L655 0L573 0L491 0L409 0L327 0L245 0L164 0L82 0L0 0Z" fill="#00cc8e"></path><path d="M0 235L82 175L164 157L245 211L327 169L409 223L491 139L573 187L655 223L736 163L818 121L900 223L900 89L818 35L736 71L655 95L573 59L491 47L409 95L327 95L245 35L164 35L82 41L0 83Z" fill="#00b98a"></path><path d="M0 385L82 349L164 235L245 349L327 301L409 451L491 337L573 379L655 397L736 361L818 307L900 307L900 221L818 119L736 161L655 221L573 185L491 137L409 221L327 167L245 209L164 155L82 173L0 233Z" fill="#00a784"></path><path d="M0 481L82 481L164 361L245 397L327 409L409 505L491 439L573 469L655 439L736 445L818 355L900 361L900 305L818 305L736 359L655 395L573 377L491 335L409 449L327 299L245 347L164 233L82 347L0 383Z" fill="#00957c"></path><path d="M0 601L82 601L164 601L245 601L327 601L409 601L491 601L573 601L655 601L736 601L818 601L900 601L900 359L818 353L736 443L655 437L573 467L491 437L409 503L327 407L245 395L164 359L82 479L0 479Z" fill="#038373"></path></svg>